<svg height="512pt" viewBox="0 0 512 512" width="512pt" xmlns="http://www.w3.org/2000/svg"><path d="m256 512c140.960938 0 256-115.050781 256-256 0-140.960938-115.050781-256-256-256-140.960938 0-256 115.050781-256 256 0 140.960938 115.050781 256 256 256zm-205.535156-162.070312c20.464844-20.621094 36.835937-44.460938 48.71875-71.027344 1.078125-2.40625 2.097656-4.828125 3.089844-7.261719 17.636718 11.597656 35.117187 20.949219 52.738281 28.691406-2.664063 19.957031-4.011719 40.195313-4.011719 60.667969 0 34.1875 3.730469 67.882812 11.078125 100.539062-49.242187-22.59375-89.019531-62.367187-111.613281-111.609374zm-20.464844-93.929688c0-14.511719 1.390625-28.699219 4.015625-42.453125 13.203125 14.410156 27.617187 27.769531 43.015625 39.898437-8.710938 23.664063-21.640625 45.71875-38.261719 64.960938-5.707031-19.832031-8.769531-40.765625-8.769531-62.40625zm60-75c0 13.824219-1.394531 27.523438-4.070312 40.914062-15.34375-12.992187-29.535157-27.421874-42.328126-43.160156 8.511719-23.328125 20.769532-44.867187 36.03125-63.898437 6.808594 21.09375 10.367188 43.570312 10.367188 66.144531zm106.085938 292.921875c-9.878907-35.992187-15.085938-74.851563-15.085938-112.921875 0-16.640625.976562-33.144531 2.875-49.445312 28.847656 9.816406 58.980469 16.015624 89.421875 18.367187-1.519531 10.203125-2.296875 20.585937-2.296875 31.078125 0 41.316406 11.972656 81.609375 34.050781 115.621094-15.796875 3.511718-32.210937 5.378906-49.050781 5.378906-20.738281 0-40.824219-2.820312-59.914062-8.078125zm139.179687-6.28125c-22.15625-30.625-34.265625-68.09375-34.265625-106.640625 0-10.222656.882812-20.25 2.554688-30.023438 62.75-.429687 123.234374-16.640624 176.734374-47.179687-10.417968 84.558594-67.722656 154.796875-145.023437 183.84375zm-23.765625-166.816406c23.695312-65.773438 84.988281-114.304688 157.851562-119.375 7.3125 20.875 11.644532 43.140625 12.480469 66.28125-50.660156 32.984375-109.183593 51.222656-170.332031 53.09375zm145.363281-148.332031c-85.078125 10.070312-153.476562 70.53125-176.914062 147.820312-31.390625-2.027344-62.179688-8.546875-91.421875-19.101562 17.695312-92.804688 66.042968-177.214844 138.683594-239.707032 56.257812 18.726563 102.753906 59 129.652343 110.988282zm-164.839843-119.609376c-67.175782 63.6875-113.304688 146.589844-131.796876 236.625-16.738281-7.832031-32.816406-17.035156-48.042968-27.519531 5.1875-19.761719 7.816406-40.160156 7.816406-60.988281 0-31.261719-6.003906-62.410156-17.402344-90.800781 40.328125-37.339844 94.242188-60.199219 153.402344-60.199219 12.257812 0 24.289062.996094 36.023438 2.882812zm0 0"/></svg>
