<?xml version="1.0" encoding="iso-8859-1"?>
<!-- Generator: Adobe Illustrator 19.0.0, SVG Export Plug-In . SVG Version: 6.00 Build 0)  -->
<svg version="1.1" id="Capa_1" xmlns="http://www.w3.org/2000/svg" xmlns:xlink="http://www.w3.org/1999/xlink" x="0px" y="0px"
	 viewBox="0 0 511.999 511.999" style="enable-background:new 0 0 511.999 511.999;" xml:space="preserve">
<g>
	<g>
		<path d="M492.8,1.085c-3.601-2.161-8.271-0.993-10.433,2.609l-95.49,159.152c-2.161,3.601-0.993,8.272,2.609,10.433
			c1.225,0.735,2.573,1.085,3.905,1.085c2.583,0,5.102-1.316,6.527-3.693L495.41,11.517C497.571,7.916,496.402,3.245,492.8,1.085z"
			/>
	</g>
</g>
<g>
	<g>
		<path d="M415.951,1.085c-3.601-2.161-8.271-0.993-10.433,2.609L158.983,414.585c-9.511,15.886-30.171,21.074-46.059,11.564
			c-15.886-9.51-21.074-30.172-11.564-46.059c5.564-9.294,7.175-20.198,4.537-30.705s-9.209-19.357-18.503-24.92
			s-20.198-7.176-30.705-4.538c-10.507,2.638-19.357,9.209-24.92,18.504c-4.632,7.739-8.342,15.993-11.025,24.532
			c-1.258,4.007,0.969,8.275,4.976,9.533s8.275-0.969,9.533-4.976c2.325-7.402,5.543-14.561,9.564-21.279
			c3.478-5.808,9.008-9.916,15.575-11.564c6.566-1.65,13.382-0.642,19.19,2.836c5.808,3.477,9.916,9.008,11.564,15.575
			c1.649,6.566,0.642,13.381-2.836,19.19c-13.817,23.082-6.279,53.101,16.802,66.918c7.83,4.687,16.455,6.917,24.978,6.917
			c16.602,0,32.808-8.465,41.936-23.711l104.802-174.67l20.967,63.582l-43.008,71.681c-29.863,5.916-52.451,32.305-52.451,63.878
			c0,5.732,0.751,11.292,2.149,16.592c-14.753,16.583-34.802,27.811-56.89,31.759c-23.627,4.222-47.96-0.229-68.518-12.533
			c-32.123-19.228-50.575-54.456-48.156-91.939c0.271-4.19-2.908-7.808-7.098-8.077c-4.197-0.279-7.808,2.908-8.077,7.098
			c-2.788,43.194,18.487,83.799,55.522,105.967c17.87,10.696,38.209,16.246,58.809,16.245c6.729,0,13.487-0.592,20.194-1.792
			c23.011-4.113,44.099-15.104,60.509-31.308c11.198,19.749,32.402,33.113,56.681,33.113c35.911,0,65.125-29.215,65.125-65.125
			c0-34.004-26.2-61.988-59.472-64.865l111.328-185.545c2.159-3.601,0.992-8.272-2.61-10.433c-3.601-2.161-8.271-0.993-10.433,2.608
			l-37.05,61.751l-20.971-63.576L418.56,11.517C420.72,7.916,419.552,3.245,415.951,1.085z M317.38,446.875
			c0,27.524-22.393,49.917-49.917,49.917c-27.524,0-49.917-22.393-49.917-49.917s22.393-49.917,49.917-49.917
			C294.987,396.957,317.38,419.349,317.38,446.875z M324.019,267.611l-15.888,26.48l-20.967-63.582l15.884-26.473L324.019,267.611z"
			/>
	</g>
</g>
<g>
</g>
<g>
</g>
<g>
</g>
<g>
</g>
<g>
</g>
<g>
</g>
<g>
</g>
<g>
</g>
<g>
</g>
<g>
</g>
<g>
</g>
<g>
</g>
<g>
</g>
<g>
</g>
<g>
</g>
</svg>
