<?xml version="1.0" encoding="iso-8859-1"?>
<!-- Generator: Adobe Illustrator 18.0.0, SVG Export Plug-In . SVG Version: 6.00 Build 0)  -->
<!DOCTYPE svg PUBLIC "-//W3C//DTD SVG 1.1//EN" "http://www.w3.org/Graphics/SVG/1.1/DTD/svg11.dtd">
<svg version="1.1" id="Capa_1" xmlns="http://www.w3.org/2000/svg" xmlns:xlink="http://www.w3.org/1999/xlink" x="0px" y="0px"
	 viewBox="0 0 485.687 485.687" style="enable-background:new 0 0 485.687 485.687;" xml:space="preserve">
<g>
	<path d="M466.148,53.204c-10.673,0-19.362,8.604-19.523,19.24h-24.155c-2.287-17.979-19.063-34.473-47.838-46.814
		C344.745,12.811,305.104,5.752,263.007,5.752c-42.097,0-81.739,7.06-111.625,19.878c-31.029,13.309-48.117,31.443-48.117,51.064
		s17.088,37.756,48.117,51.064c29.886,12.817,69.528,19.877,111.625,19.877c42.096,0,81.738-7.06,111.624-19.877
		c28.775-12.342,45.551-28.835,47.838-46.814h24.14v394.741c0,2.348,1.902,4.25,4.25,4.25h30.578c2.348,0,4.25-1.902,4.25-4.25
		V72.742C485.687,61.968,476.921,53.204,466.148,53.204z M371.282,119.946c-28.852,12.375-67.304,19.189-108.274,19.189
		s-79.424-6.814-108.274-19.189c-27.307-11.712-42.968-27.477-42.968-43.252s15.661-31.541,42.968-43.253
		c28.851-12.375,67.304-19.189,108.274-19.189s79.423,6.814,108.274,19.189c27.307,11.712,42.968,27.478,42.968,43.253
		S398.588,108.234,371.282,119.946z M477.187,471.435h-22.078V72.742c0-6.087,4.952-11.038,11.039-11.038
		c6.087,0,11.039,4.951,11.039,11.038V471.435z"/>
	<path d="M353.593,40.7c-24.261-8.705-56.432-13.5-90.586-13.5c-34.155,0-66.326,4.795-90.588,13.5
		c-25.628,9.197-39.742,21.979-39.742,35.994c0,14.014,14.114,26.796,39.742,35.993c24.262,8.706,56.434,13.501,90.588,13.501
		c34.153,0,66.324-4.795,90.586-13.501c25.628-9.197,39.742-21.979,39.742-35.993C393.335,62.679,379.221,49.897,353.593,40.7z
		 M350.722,104.686c-23.363,8.385-54.515,13.002-87.715,13.002c-33.201,0-64.353-4.617-87.717-13.002
		c-21.68-7.779-34.113-17.982-34.113-27.992c0-10.011,12.434-20.214,34.113-27.993c23.363-8.384,54.516-13.001,87.717-13.001
		c33.2,0,64.352,4.617,87.715,13.001c21.68,7.779,34.113,17.982,34.113,27.993C384.835,86.704,372.402,96.907,350.722,104.686z"/>
	<path d="M129.735,207.855c-29.504,0-57.353,9.701-80.535,28.055C8.389,268.217-7.777,320.279,3.5,367.873
		c0.04,0.301,0.106,0.596,0.209,0.882c4.294,17.572,12.335,34.514,24.278,49.6c24.786,31.311,61.932,49.268,101.912,49.268
		c29.503,0,57.351-9.7,80.532-28.053c27.201-21.533,44.388-52.369,48.395-86.829c4.007-34.46-5.645-68.417-27.179-95.616
		C206.86,225.812,169.714,207.855,129.735,207.855z M136.083,324.798c-18.945,4.594-38.498,5.129-57.369,1.904
		c7.971-58.576,60.772-101.816,69.893-108.887c21.703,3.362,41.905,12.49,58.692,26.461
		C171.763,264.806,145.665,294.32,136.083,324.798z M12.378,307.276c26.126,19.576,58.112,29.982,90.477,29.982
		c10.86,0,21.762-1.186,32.498-3.574c15.358,15.824,26.658,34.956,33.29,55.586c-7.695,1.566-27.117,4.927-51.492,4.758
		c-28.557-0.218-69.901-5.518-105.658-29.291C7.185,345.72,7.55,325.981,12.378,307.276z M54.475,242.574
		c21.666-17.152,47.691-26.219,75.26-26.219c2.329,0,4.647,0.065,6.954,0.195c-6.407,5.469-15.813,14.172-25.645,25.615
		c-15.878,18.48-35.739,47.797-40.673,82.852c-20.008-4.652-39.002-13.595-55.393-26.469
		C22.233,277.181,35.503,257.592,54.475,242.574z M34.652,413.079c-8.84-11.167-15.388-23.423-19.727-36.196
		c35.54,20.676,74.747,25.46,102.405,25.645c0.607,0.004,1.207,0.006,1.808,0.006c25.091,0,44.448-3.494,51.875-5.063
		c4.432,17.245,5.658,35.333,3.334,53.26c-13.998,5.534-28.98,8.391-44.447,8.391C92.533,459.122,57.817,442.34,34.652,413.079z
		 M205.157,432.905c-6.863,5.434-14.167,10.049-21.815,13.828c4.017-42.569-10.624-85.528-39.896-116.887
		c4.786-17.038,15.256-33.899,30.002-48.969c8.211,7.598,54.095,53.177,57.126,124.635
		C223.66,415.766,215.132,425.008,205.157,432.905z M250.383,351.758c-1.684,14.493-5.872,28.296-12.276,40.934
		c-4.087-36.663-18.56-65.582-30.712-84.119c-11.852-18.078-23.384-29.517-27.817-33.618c9.975-9.159,21.556-17.525,34.395-24.696
		c3.901,3.768,7.586,7.814,11.012,12.142C245.108,287.818,254.128,319.553,250.383,351.758z"/>
	<path d="M171.051,297.871c-1.568-1.747-4.256-1.89-6.001-0.321c-1.746,1.568-1.891,4.255-0.321,6.001
		c11.664,12.984,22.334,28.924,30.045,44.883c0.733,1.518,2.251,2.402,3.83,2.402c0.62,0,1.25-0.137,1.846-0.424
		c2.113-1.022,2.999-3.563,1.979-5.676C194.378,328.077,183.236,311.432,171.051,297.871z"/>
	<path d="M57.76,315.38c0.326,0.077,0.652,0.113,0.974,0.113c1.929,0,3.675-1.322,4.134-3.281
		c3.983-17.002,10.957-34.87,19.638-50.313c1.149-2.046,0.424-4.637-1.623-5.787c-2.046-1.15-4.637-0.423-5.787,1.623
		c-9.062,16.12-16.343,34.778-20.503,52.537C54.056,312.558,55.475,314.844,57.76,315.38z"/>
</g>
<g>
</g>
<g>
</g>
<g>
</g>
<g>
</g>
<g>
</g>
<g>
</g>
<g>
</g>
<g>
</g>
<g>
</g>
<g>
</g>
<g>
</g>
<g>
</g>
<g>
</g>
<g>
</g>
<g>
</g>
</svg>
